# xmcd CD database file
#
# Track frame offsets:
#	150
#	11790
#	24018
#	33170
#	42003
#	51670
#	67995
#	82612
#	96893
#	111739
#	123968
#	138838
#	152120
#	163607
#	178358
#	191071
#	203728
#
# Disc length: 2947 seconds
#
# Revision: 0
# Processed by: cddbd v1.5.2PL0 Copyright (c) Steve Scherf et al.
# Submitted via: CDex 1.51
#
DISCID=df0b8111
DTITLE=Various Artist - Greatest Ever Country The Definitive Collection [CD 02)
DYEAR=2006
DGENRE=Country
TTITLE0=Patsy Cline - Walkin' After Midnight
TTITLE1=Charlie Rich - The Most Beautiful Girl
TTITLE2=The Everly Brothers - Wake Up Little Susie
TTITLE3=Emmylou Harris, Alison Krauss and Gillian Welch - Don't Leave Nobody But The Baby
TTITLE4=Roy Orbison - You're Gonna Cry
TTITLE5=Rita Coolidge - We're All Alone
TTITLE6=Shelby Lynne - Leavin'
TTITLE7=The Soggy Bottom Boys - I Am A Man Of Constant Sorrow
TTITLE8=Jeanne Pruett - Satin Sheets
TTITLE9=Jeannie C. Riley - Country Girl
TTITLE10=Martina McBride - Wrong Again
TTITLE11=The Flatlanders - Tonight I Think I'm Gonna Go Downtown
TTITLE12=Don Gibson - Oh Lonesome Me
TTITLE13=Johnny Paycheck - A Good Year For The Roses
TTITLE14=Johnny Cash - Folsom Prison Blues
TTITLE15=Hank Williams - I'm So Lonesome I Could Cry
TTITLE16=Dr Hook - Sylvia's Mother
EXTD=YEAR: 2006
EXTT0=
EXTT1=
EXTT2=
EXTT3=
EXTT4=
EXTT5=
EXTT6=
EXTT7=
EXTT8=
EXTT9=
EXTT10=
EXTT11=
EXTT12=
EXTT13=
EXTT14=
EXTT15=
EXTT16=
PLAYORDER=
